<?xml version="1.0" encoding="utf-8"?>
<!-- Generator: Adobe Illustrator 26.0.2, SVG Export Plug-In . SVG Version: 6.00 Build 0)  -->
<svg version="1.1" id="Layer_1" xmlns="http://www.w3.org/2000/svg" xmlns:xlink="http://www.w3.org/1999/xlink" x="0px" y="0px"
	 viewBox="500 0 900 1080" xml:space="preserve">
<style type="text/css">
	.st0{fill:none;stroke:#000000;stroke-width:6;stroke-linecap:round;stroke-linejoin:round;stroke-miterlimit:10;}
	.st1{fill:#F2F2F2;stroke:#000000;stroke-width:4;stroke-miterlimit:10;}
	.st2{fill:none;stroke:#000000;stroke-width:5;stroke-linecap:round;stroke-linejoin:round;stroke-miterlimit:10;}
	.st3{fill:#F7931E;stroke:#000000;stroke-width:2;stroke-miterlimit:10;}
	.st4{fill:none;stroke:#000000;stroke-width:3;stroke-linecap:round;stroke-linejoin:round;stroke-miterlimit:10;}
	.st5{fill:#FBB03B;stroke:#000000;stroke-width:3;stroke-linejoin:round;stroke-miterlimit:10;}
	.st6{fill:#FBB03B;stroke:#000000;stroke-width:3;stroke-linecap:round;stroke-linejoin:round;stroke-miterlimit:10;}
</style>
<path class="st0" d="M793,943c0,0-15.61-94.11-18-116s6.01-104,5-117"/>
<path class="st0" d="M951.5,710.5c0,0-21,94-22,116S917,919,916,932"/>
<path class="st1" d="M1138,328c9,129,43,236-52,315s-148,72-240,72s-138-21-153-21s-70,8-70,8s-11,1-15-1s2-8,2-9s-24,2-28-3
	s2-10,2-11s-10,1-15-7s-1-10,3-16s31-33,31-33s31-55,44-69s63-51,73-58s25-22,34-50s29-46,54-67s72-25,72-25s-1-14,21-41
	s29-14,31-63s-14-29-15-88s65-86,120-87s95,32,95,32l8,80c0,0-17,27-12,79S1138,328,1138,328z"/>
<path class="st2" d="M963,446c0,0,21,29,21,57c0,0,9,27-49,42c0,0-31,8-43,8s-18,8-32,8s-25-5-25-5"/>
<path class="st2" d="M695.5,614.5c0,0,49,29,120,29s95.26-11.56,126-30c50-30,51-78,51-78"/>
<circle cx="1058.5" cy="148.5" r="6.5"/>
<path class="st3" d="M1295,144c11-4,15-8,3-17s-18-17-59-16s-43-8-66-8s-31,4-39,4s2.09,50.43,2.09,50.43S1138,174,1139,180
	c0,0,0,3,24,3s45,1,63-5s30-13,39-20l19-10L1295,144z"/>
<path class="st4" d="M1283,148c-7,0-32,9-43,9s-27,0-50,0h-38"/>
<path class="st5" d="M905,952c-3.16,6.42-12,26-12,26c5,3,25-16,43-16s6,34,11,34s6.29-19.45,16-25c7-4,20-9,29-8s25,7,28,4
	s-16-12-27-15s-79-21-79-21S907.62,946.68,905,952z"/>
<path class="st6" d="M832,1005c-7.04,4.76-10,19-10,27s-6-3-10-7s-18-21-31-21s-32,19-35,17s20-31,26-40s23-38,23-38s11,3,21,15
	s29,20,42,23s34,8,42,15s11,8,9,11s-43-9-55-8S835.75,1002.46,832,1005z"/>
</svg>
